<?xml version="1.0" encoding="utf-8"?>
<!-- Generator: Adobe Illustrator 23.0.1, SVG Export Plug-In . SVG Version: 6.00 Build 0)  -->
<svg version="1.1" id="Layer_1" xmlns="http://www.w3.org/2000/svg" xmlns:xlink="http://www.w3.org/1999/xlink" x="0px" y="0px"
	 width="40px" height="40px" viewBox="0 0 26 24" style="enable-background:new 0 0 26 24;" xml:space="preserve">
<style type="text/css">
	.st0{fill:#FFFFFF;}
	.st1{fill:#FFFFFF;stroke:#000000;stroke-miterlimit:10;}
</style>
<g>
	<path class="st0" d="M13,11.68c-2.58,0-4.68-2.1-4.68-4.68c0-2.58,2.1-4.68,4.68-4.68c2.58,0,4.68,2.1,4.68,4.68
		C17.68,9.58,15.58,11.68,13,11.68z"/>
	<path d="M13,2.82c2.3,0,4.18,1.87,4.18,4.18S15.3,11.18,13,11.18S8.82,9.3,8.82,7S10.7,2.82,13,2.82 M13,1.82
		c-2.86,0-5.18,2.32-5.18,5.18s2.32,5.18,5.18,5.18S18.18,9.86,18.18,7S15.86,1.82,13,1.82L13,1.82z"/>
</g>
<path class="st1" d="M1,19.62c0,0,11.29-11.21,24,0v3.74H1V19.62z"/>
</svg>
